<?xml version="1.0" encoding="iso-8859-1"?>
<!-- Uploaded to: SVG Repo, www.svgrepo.com, Generator: SVG Repo Mixer Tools -->
<svg fill="#000000" height="800px" width="800px" version="1.1" id="Layer_1" xmlns="http://www.w3.org/2000/svg" xmlns:xlink="http://www.w3.org/1999/xlink" 
	 viewBox="0 0 512 512" xml:space="preserve">
<g>
	<g>
		<path d="M501.789,0.001H10.211C4.57,0.001,0,4.573,0,10.212v491.576c0,5.639,4.57,10.211,10.211,10.211h491.578
			c5.641,0,10.211-4.572,10.211-10.211V10.212C512,4.573,507.428,0.001,501.789,0.001z M105.556,491.577H58.932v-140.9h46.624
			V491.577z M175.673,491.577h-49.694v-140.9h30.889v76.329c-0.001,5.641,4.569,10.212,10.21,10.212h8.595V491.577z
			 M194.478,416.796h-17.189v-65.805h17.189V416.796z M245.783,491.577h-49.689v-54.359h8.595c5.641,0,10.211-4.572,10.211-10.211
			v-76.329h12.087v76.329c0,5.639,4.57,10.211,10.211,10.211h8.584V491.577z M264.598,416.796H247.41v-65.805h17.189V416.796z
			 M315.904,491.577h-49.701v-54.359h8.605c5.641,0,10.211-4.572,10.211-10.211v-76.329h30.885V491.577z M386.028,491.577h-49.701
			v-140.9h31.318v76.329c0,5.641,4.572,10.212,10.211,10.212h8.172V491.577z M405.256,416.796h-17.189v-65.805h17.189V416.796z
			 M453.067,491.577H406.45v-54.359h9.017c5.641,0,10.211-4.572,10.211-10.211v-76.329h27.389V491.577z M491.578,491.577h-18.089
			V340.466c0-5.639-4.57-10.211-10.211-10.211H48.721c-5.641,0-10.211,4.572-10.211,10.211v151.111H20.422V294.162h471.156V491.577z
			 M96.533,219.382h9.016v54.359H58.932V132.842h27.39v76.329C86.322,214.81,90.894,219.382,96.533,219.382z M106.744,198.959
			v-65.805h17.189v65.805H106.744z M125.971,273.741v-54.36h8.173c5.641,0,10.211-4.572,10.211-10.211v-76.329h31.317v140.9H125.971
			z M237.192,219.382h8.603v54.359h-49.701V132.842h30.887v76.329C226.981,214.81,231.551,219.382,237.192,219.382z
			 M247.403,198.959v-65.805h17.189v65.805H247.403z M307.311,219.382h8.595v54.359h-49.687v-54.359h8.584
			c5.641,0,10.211-4.572,10.211-10.211v-76.329H297.1v76.329C297.1,214.81,301.67,219.382,307.311,219.382z M317.522,198.959
			v-65.805h17.189v65.805H317.522z M336.328,219.382h8.594c5.641,0,10.211-4.572,10.211-10.211v-76.329h30.889v140.9h-49.694
			V219.382z M406.443,273.741v-140.9h46.624v140.9H406.443z M491.578,273.74H473.49V122.631c0-5.639-4.57-10.211-10.211-10.211
			H48.721c-5.641,0-10.211,4.572-10.211,10.211v151.111H20.422V20.423h471.156V273.74z"/>
	</g>
</g>
<g>
	<g>
		<path d="M215.155,35.128c-15.39,0-27.91,12.52-27.91,27.91s12.522,27.91,27.91,27.91c15.39,0,27.91-12.52,27.91-27.91
			S230.545,35.128,215.155,35.128z M215.155,70.527c-4.129,0-7.488-3.359-7.488-7.488c0-4.129,3.359-7.488,7.488-7.488
			c4.129,0,7.488,3.359,7.488,7.488C222.643,67.168,219.284,70.527,215.155,70.527z"/>
	</g>
</g>
<g>
	<g>
		<path d="M296.844,35.128c-15.39,0-27.91,12.52-27.91,27.91s12.522,27.91,27.91,27.91c15.39,0,27.91-12.52,27.91-27.91
			S312.234,35.128,296.844,35.128z M296.844,70.527c-4.129,0-7.488-3.359-7.488-7.488c0-4.129,3.359-7.488,7.488-7.488
			s7.488,3.359,7.488,7.488C304.332,67.168,300.973,70.527,296.844,70.527z"/>
	</g>
</g>
<g>
	<g>
		<circle cx="151.192" cy="49.45" r="10.174"/>
	</g>
</g>
<g>
	<g>
		<circle cx="117.064" cy="49.45" r="10.174"/>
	</g>
</g>
<g>
	<g>
		<circle cx="82.931" cy="49.436" r="10.174"/>
	</g>
</g>
<g>
	<g>
		<circle cx="48.798" cy="49.436" r="10.174"/>
	</g>
</g>
<g>
	<g>
		<circle cx="151.192" cy="79.416" r="10.174"/>
	</g>
</g>
<g>
	<g>
		<circle cx="117.064" cy="79.416" r="10.174"/>
	</g>
</g>
<g>
	<g>
		<circle cx="82.931" cy="79.402" r="10.174"/>
	</g>
</g>
<g>
	<g>
		<circle cx="48.798" cy="79.402" r="10.174"/>
	</g>
</g>
<g>
	<g>
		<circle cx="463.312" cy="49.45" r="10.174"/>
	</g>
</g>
<g>
	<g>
		<circle cx="429.18" cy="49.45" r="10.174"/>
	</g>
</g>
<g>
	<g>
		<circle cx="395.047" cy="49.436" r="10.174"/>
	</g>
</g>
<g>
	<g>
		<circle cx="360.915" cy="49.436" r="10.174"/>
	</g>
</g>
<g>
	<g>
		<circle cx="463.312" cy="79.416" r="10.174"/>
	</g>
</g>
<g>
	<g>
		<circle cx="429.18" cy="79.416" r="10.174"/>
	</g>
</g>
<g>
	<g>
		<circle cx="395.047" cy="79.402" r="10.174"/>
	</g>
</g>
<g>
	<g>
		<circle cx="360.915" cy="79.402" r="10.174"/>
	</g>
</g>
</svg>